<svg xmlns="http://www.w3.org/2000/svg" width="115" height="40" viewBox="0 0 115 40">
  <g id="habr-icon" transform="translate(-1285 7875)">
    <rect id="Прямоугольник_15" data-name="Прямоугольник 15" width="115" height="40" rx="20" transform="translate(1285 -7875)" fill="#63a2b8"/>
    <path id="Контур_5" data-name="Контур 5" d="M13.721,0H10.557V-5.7h-5.8V0H1.6V-14H4.756v5.586h5.8V-14h3.164ZM24.941,0h-2.92V-1.436h-.039A3.259,3.259,0,0,1,19,.244a3.116,3.116,0,0,1-2.29-.825,2.957,2.957,0,0,1-.835-2.2q0-2.91,3.447-3.359L22.041-6.5q0-1.641-1.777-1.641a6.067,6.067,0,0,0-3.4,1.064V-9.4a7.646,7.646,0,0,1,1.763-.586,9.266,9.266,0,0,1,2.036-.254q4.277,0,4.277,4.268Zm-2.9-4.062v-.674L20.225-4.5q-1.5.2-1.5,1.357a1.122,1.122,0,0,0,.366.864,1.407,1.407,0,0,0,.991.337,1.827,1.827,0,0,0,1.416-.6A2.169,2.169,0,0,0,22.041-4.062Zm8.467,2.9h-.039V0H27.383V-14.8h3.086V-8.5h.039a3.662,3.662,0,0,1,3.252-1.748,3.568,3.568,0,0,1,2.979,1.328,5.727,5.727,0,0,1,1.045,3.633A6.2,6.2,0,0,1,36.563-1.27,3.976,3.976,0,0,1,33.3.244,3.151,3.151,0,0,1,30.508-1.162ZM30.42-5.381v1.025a2.341,2.341,0,0,0,.557,1.6,1.811,1.811,0,0,0,1.426.635,1.892,1.892,0,0,0,1.636-.815,3.937,3.937,0,0,0,.581-2.31,3.132,3.132,0,0,0-.532-1.938,1.8,1.8,0,0,0-1.519-.7,1.962,1.962,0,0,0-1.538.693A2.634,2.634,0,0,0,30.42-5.381ZM46.309-7.217a2.677,2.677,0,0,0-1.3-.3,1.871,1.871,0,0,0-1.572.737,3.217,3.217,0,0,0-.566,2.007V0H39.785V-10h3.086v1.855h.039a2.67,2.67,0,0,1,2.637-2.031,1.987,1.987,0,0,1,.762.117Z" transform="translate(1299.133 -7848.195)" fill="#fff"/>
    <path id="Icon_awesome-long-arrow-alt-right" data-name="Icon awesome-long-arrow-alt-right" d="M15.858,13.257H.606A.566.566,0,0,0,0,13.77v2.4a.566.566,0,0,0,.606.513H15.858v1.97c0,.915,1.306,1.372,2.07.726l4.347-3.681a.919.919,0,0,0,0-1.452l-4.347-3.681c-.764-.647-2.07-.189-2.07.726Z" transform="translate(1362.851 -7869.968)" fill="#fff"/>
  </g>
</svg>
