<svg xmlns="http://www.w3.org/2000/svg" width="179" height="40" viewBox="0 0 179 40">
  <g id="head-hunter-icon" transform="translate(-1048 7875)">
    <rect id="Прямоугольник_14" data-name="Прямоугольник 14" width="179" height="40" rx="20" transform="translate(1048 -7875)" fill="#d12828"/>
    <path id="Контур_4" data-name="Контур 4" d="M13.721,0H10.557V-5.7h-5.8V0H1.6V-14H4.756v5.586h5.8V-14h3.164ZM25.605-4.121H19.082q.156,2.178,2.744,2.178a5.357,5.357,0,0,0,2.9-.781V-.5a7.619,7.619,0,0,1-3.6.742A5.073,5.073,0,0,1,17.363-1.1a5.073,5.073,0,0,1-1.338-3.745,5.352,5.352,0,0,1,1.445-3.945,4.815,4.815,0,0,1,3.555-1.455,4.37,4.37,0,0,1,3.384,1.3,5,5,0,0,1,1.2,3.525ZM22.744-6.016q0-2.148-1.738-2.148a1.66,1.66,0,0,0-1.284.615,2.792,2.792,0,0,0-.659,1.533ZM35.762,0h-2.92V-1.436H32.8A3.259,3.259,0,0,1,29.824.244a3.116,3.116,0,0,1-2.29-.825,2.957,2.957,0,0,1-.835-2.2q0-2.91,3.447-3.359L32.861-6.5q0-1.641-1.777-1.641a6.067,6.067,0,0,0-3.4,1.064V-9.4a7.646,7.646,0,0,1,1.763-.586,9.266,9.266,0,0,1,2.036-.254q4.277,0,4.277,4.268Zm-2.9-4.062v-.674L31.045-4.5q-1.5.2-1.5,1.357a1.122,1.122,0,0,0,.366.864,1.407,1.407,0,0,0,.991.337,1.827,1.827,0,0,0,1.416-.6A2.169,2.169,0,0,0,32.861-4.062ZM47.988,0H44.9V-1.377h-.039a3.46,3.46,0,0,1-3.1,1.621A3.791,3.791,0,0,1,38.75-1.079a5.478,5.478,0,0,1-1.143-3.7,5.962,5.962,0,0,1,1.26-3.975,4.109,4.109,0,0,1,3.3-1.494,2.808,2.808,0,0,1,2.7,1.387H44.9V-14.8h3.086ZM44.961-4.863v-.752a2.366,2.366,0,0,0-.566-1.621,1.871,1.871,0,0,0-1.475-.645,1.859,1.859,0,0,0-1.6.806,3.741,3.741,0,0,0-.576,2.212A3.237,3.237,0,0,0,41.3-2.832a1.848,1.848,0,0,0,1.543.713,1.856,1.856,0,0,0,1.528-.752A3.134,3.134,0,0,0,44.961-4.863ZM63.008,0H59.844V-5.7h-5.8V0H50.889V-14h3.154v5.586h5.8V-14h3.164Zm12.4,0H72.334V-1.523h-.049A3.49,3.49,0,0,1,69.229.244q-3.477,0-3.477-4.209V-10h3.076v5.762q0,2.119,1.68,2.119A1.661,1.661,0,0,0,71.836-2.7a2.343,2.343,0,0,0,.5-1.577V-10H75.41ZM87.666,0H84.59V-5.557q0-2.324-1.66-2.324a1.647,1.647,0,0,0-1.318.615A2.344,2.344,0,0,0,81.094-5.7V0H78.008V-10h3.086v1.582h.039a3.536,3.536,0,0,1,3.213-1.826q3.32,0,3.32,4.121Zm8.486-.117a4.561,4.561,0,0,1-2.061.361q-3.262,0-3.262-3.389v-4.58H89.209V-10H90.83v-2.158l3.076-.879V-10h2.246v2.275H93.906v4.043q0,1.563,1.24,1.563A2.091,2.091,0,0,0,96.152-2.4Zm10.645-4h-6.523q.156,2.178,2.744,2.178a5.357,5.357,0,0,0,2.9-.781V-.5a7.619,7.619,0,0,1-3.6.742A5.073,5.073,0,0,1,98.555-1.1a5.073,5.073,0,0,1-1.338-3.745,5.352,5.352,0,0,1,1.445-3.945,4.815,4.815,0,0,1,3.555-1.455,4.37,4.37,0,0,1,3.384,1.3,5,5,0,0,1,1.2,3.525Zm-2.861-1.895q0-2.148-1.738-2.148a1.66,1.66,0,0,0-1.284.615,2.792,2.792,0,0,0-.659,1.533Zm11.221-1.2a2.677,2.677,0,0,0-1.3-.3,1.871,1.871,0,0,0-1.572.737,3.217,3.217,0,0,0-.566,2.007V0h-3.086V-10h3.086v1.855h.039a2.67,2.67,0,0,1,2.637-2.031,1.987,1.987,0,0,1,.762.117Z" transform="translate(1064 -7848.195)" fill="#fff"/>
    <path id="Icon_awesome-long-arrow-alt-right" data-name="Icon awesome-long-arrow-alt-right" d="M15.858,13.257H.606A.566.566,0,0,0,0,13.77v2.4a.566.566,0,0,0,.606.513H15.858v1.97c0,.915,1.306,1.372,2.07.726l4.347-3.681a.919.919,0,0,0,0-1.452l-4.347-3.681c-.764-.647-2.07-.189-2.07.726Z" transform="translate(1189.403 -7870.258)" fill="#fff"/>
  </g>
</svg>
