<svg xmlns="http://www.w3.org/2000/svg" width="149" height="40" viewBox="0 0 149 40">
  <g id="website-icon" transform="translate(-1370 7875)">
    <rect id="website-icon-2" data-name="website-icon" width="149" height="40" rx="20" transform="translate(1370 -7875)" fill="#4a1fb3"/>
    <path id="Icon_awesome-long-arrow-alt-right" data-name="Icon awesome-long-arrow-alt-right" d="M15.858,13.257H.606A.566.566,0,0,0,0,13.77v2.4a.566.566,0,0,0,.606.513H15.858v1.97c0,.915,1.306,1.372,2.07.726l4.347-3.681a.919.919,0,0,0,0-1.452l-4.347-3.681c-.764-.647-2.07-.189-2.07.726Z" transform="translate(1481.407 -7870.258)" fill="#fff"/>
    <path id="Контур_6" data-name="Контур 6" d="M19.922-14l-3.7,14h-3.5L10.4-8.984a7.491,7.491,0,0,1-.225-1.572h-.039a9.552,9.552,0,0,1-.254,1.572L7.5,0H3.857L.176-14H3.623L5.6-4.678a11.133,11.133,0,0,1,.186,1.6H5.84a7.752,7.752,0,0,1,.283-1.641L8.662-14h3.379l2.295,9.4a11.515,11.515,0,0,1,.225,1.5H14.6A10.082,10.082,0,0,1,14.8-4.658L16.738-14Zm9.922,9.883H23.32q.156,2.178,2.744,2.178a5.357,5.357,0,0,0,2.9-.781V-.5a7.619,7.619,0,0,1-3.6.742A5.073,5.073,0,0,1,21.6-1.1a5.073,5.073,0,0,1-1.338-3.745,5.352,5.352,0,0,1,1.445-3.945,4.815,4.815,0,0,1,3.555-1.455,4.37,4.37,0,0,1,3.384,1.3,5,5,0,0,1,1.2,3.525ZM26.982-6.016q0-2.148-1.738-2.148a1.66,1.66,0,0,0-1.284.615A2.792,2.792,0,0,0,23.3-6.016ZM34.8-1.162h-.039V0H31.68V-14.8h3.086V-8.5H34.8a3.662,3.662,0,0,1,3.252-1.748,3.568,3.568,0,0,1,2.979,1.328A5.727,5.727,0,0,1,42.08-5.283,6.2,6.2,0,0,1,40.859-1.27,3.976,3.976,0,0,1,37.6.244,3.151,3.151,0,0,1,34.8-1.162Zm-.088-4.219v1.025a2.341,2.341,0,0,0,.557,1.6,1.811,1.811,0,0,0,1.426.635,1.892,1.892,0,0,0,1.636-.815,3.937,3.937,0,0,0,.581-2.31,3.132,3.132,0,0,0-.532-1.938,1.8,1.8,0,0,0-1.519-.7,1.962,1.962,0,0,0-1.538.693A2.634,2.634,0,0,0,34.717-5.381ZM43.428-.264v-2.5a6.57,6.57,0,0,0,1.519.684,5.035,5.035,0,0,0,1.431.225,3.068,3.068,0,0,0,1.294-.225.726.726,0,0,0,.474-.684.632.632,0,0,0-.215-.488,2,2,0,0,0-.552-.342,6.261,6.261,0,0,0-.737-.264q-.4-.117-.771-.264a7.392,7.392,0,0,1-1.05-.483,3.034,3.034,0,0,1-.762-.6A2.361,2.361,0,0,1,43.589-6a3.157,3.157,0,0,1-.161-1.064,2.74,2.74,0,0,1,.366-1.445,2.991,2.991,0,0,1,.977-.991,4.462,4.462,0,0,1,1.4-.566,7.281,7.281,0,0,1,1.636-.181,9.076,9.076,0,0,1,1.348.1,10.058,10.058,0,0,1,1.348.3v2.383a4.87,4.87,0,0,0-1.255-.513,5.294,5.294,0,0,0-1.313-.171,2.91,2.91,0,0,0-.571.054,1.882,1.882,0,0,0-.474.156.87.87,0,0,0-.322.264.607.607,0,0,0-.117.366.677.677,0,0,0,.176.469,1.527,1.527,0,0,0,.459.337,4.531,4.531,0,0,0,.63.254q.347.112.688.229a8.951,8.951,0,0,1,1.113.469,3.56,3.56,0,0,1,.854.6,2.339,2.339,0,0,1,.547.8,2.846,2.846,0,0,1,.19,1.094,2.853,2.853,0,0,1-.386,1.519A3.088,3.088,0,0,1,49.692-.513a4.65,4.65,0,0,1-1.475.576,8.175,8.175,0,0,1-1.733.181A8.936,8.936,0,0,1,43.428-.264ZM54.443-11.582a1.8,1.8,0,0,1-1.279-.464,1.5,1.5,0,0,1-.5-1.138,1.441,1.441,0,0,1,.5-1.133,1.862,1.862,0,0,1,1.279-.439,1.858,1.858,0,0,1,1.284.439,1.448,1.448,0,0,1,.493,1.133,1.489,1.489,0,0,1-.493,1.152A1.833,1.833,0,0,1,54.443-11.582ZM55.967,0H52.881V-10h3.086Zm8.643-.117a4.561,4.561,0,0,1-2.061.361q-3.262,0-3.262-3.389v-4.58H57.666V-10h1.621v-2.158l3.076-.879V-10h2.246v2.275H62.363v4.043q0,1.563,1.24,1.563A2.091,2.091,0,0,0,64.609-2.4Zm10.645-4H68.73q.156,2.178,2.744,2.178a5.357,5.357,0,0,0,2.9-.781V-.5a7.619,7.619,0,0,1-3.6.742A5.073,5.073,0,0,1,67.012-1.1a5.073,5.073,0,0,1-1.338-3.745,5.352,5.352,0,0,1,1.445-3.945,4.815,4.815,0,0,1,3.555-1.455,4.37,4.37,0,0,1,3.384,1.3,5,5,0,0,1,1.2,3.525ZM72.393-6.016q0-2.148-1.738-2.148a1.66,1.66,0,0,0-1.284.615,2.792,2.792,0,0,0-.659,1.533Z" transform="translate(1388 -7848.195)" fill="#fff"/>
  </g>
</svg>
